PathFileType	4	(X/Y/Z)	2_2_46_p0_0-136.trc
DataRate	CameraRate	NumFrames	NumMarkers	Units	OrigDataRate	OrigDataStartFrame	OrigNumFrames
59.0	59.0	5	27	m	59.0	0	137
Frame#	Time	RHip			RKnee			RAnkle			RBigToe			RSmallToe			RHeel			LHip			LKnee			LAnkle			LBigToe			LSmallToe			LHeel			Neck			Head			Nose			RShoulder			RElbow			RWrist			RThumb			RIndex			RPinky			LShoulder			LElbow			LWrist			LThumb			LIndex			LPinky			
		X1	Y1	Z1	X2	Y2	Z2	X3	Y3	Z3	X4	Y4	Z4	X5	Y5	Z5	X6	Y6	Z6	X7	Y7	Z7	X8	Y8	Z8	X9	Y9	Z9	X10	Y10	Z10	X11	Y11	Z11	X12	Y12	Z12	X13	Y13	Z13	X14	Y14	Z14	X15	Y15	Z15	X16	Y16	Z16	X17	Y17	Z17	X18	Y18	Z18	X19	Y19	Z19	X20	Y20	Z20	X21	Y21	Z21	X22	Y22	Z22	X23	Y23	Z23	X24	Y24	Z24	X25	Y25	Z25	X26	Y26	Z26	X27	Y27	Z27	
0	0.0	0.3331362160573047	0.5644988972256683	1.023741968882837	0.33688427908715307	0.692428139182244	1.4247222497861334	0.2890952670636626	0.8968874662021331	1.8292345534746708	0.2997005462780477	0.6590432602536129	1.8766265545696328	0.3458098721295307	0.7252513199241724	1.8885660967669873	0.27611994737157364	0.9239039301694184	1.8757173544155785	0.12859937610562613	0.5586304723651135	1.02783163965525	0.1286498684382713	0.697528421469322	1.4165596267202003	0.12680450288511774	0.8800690659868553	1.8209191617121556	0.124196799342394	0.7034744756033467	1.9130627316783664	0.08729150267189009	0.7003376251471329	1.876066988498372	0.1347465552843991	0.9474524780843102	1.8683479275056338	0.22657444564319587	0.379909469056937	0.4353937309599539	0.23970018872386803	0.22592364513372667	0.2027550702265966	0.24811290374752867	0.24311120571369532	0.359050833034835	0.40065603213273904	0.4250601221380313	0.4899637166080969	0.527478841894636	0.48702349371349557	0.7129807860404243	0.3511333466810258	0.37062332145159366	0.8001891248415357	0.22647659831707093	0.30485192438130565	0.8197220071723001	0.21082580711465332	0.31046767513086004	0.8573397574558813	0.23774193185131035	0.3402630623793513	0.8803356707218751	0.06669058310416548	0.4040280818170413	0.5012661467793122	-0.05582393867001356	0.38405495121785527	0.7446855055376984	0.16999490036952114	0.33662206312790566	0.8111308923242119	0.27261468586561804	0.35251212335772936	0.8131438608278594	0.28074239495608994	0.3406120016886996	0.832383719917491	0.2466091466616589	0.3047150115985479	0.8760745814716969
1	0.01694915254237288	0.3338199742613029	0.5630651142751035	1.020379797213717	0.33678207690197914	0.6925112525216076	1.4246679347130473	0.28856866847863233	0.8980861413908293	1.8253777943840552	0.29992645196780915	0.6595922306765076	1.8770769720610756	0.3462459549516797	0.7269050257767219	1.8892808272418669	0.2810772489213232	0.9263091593311855	1.8665340353322513	0.12979563004547573	0.5559103853026559	1.0282184503473042	0.12455020629938504	0.6944147747922683	1.4161514310240284	0.12799262607012088	0.9020274256072401	1.8348704648515097	0.125900476727491	0.7189730019712265	1.9179847659271434	0.08617279901736913	0.7024367573473934	1.88109818562104	0.1331160183543767	0.9503110261776304	1.8698260790037622	0.2265485720514941	0.37986395035380033	0.4353980648478559	0.23968333310690662	0.22598488746725315	0.2027596527074948	0.24815137792619654	0.24308798130716536	0.3590661659657095	0.400193354224723	0.4250902433718271	0.48621039791051307	0.5272371960611804	0.48801028131608204	0.7168140306381126	0.3511723068279468	0.3709581019656429	0.8001307203040983	0.2332637646609937	0.307627929020142	0.8160856007292319	0.21445030979482965	0.3131857630085611	0.8606268193902119	0.23988812718131824	0.35171541790347344	0.8807897994740707	0.07242860601588802	0.3914939719654016	0.5026267914747211	-0.05575624533800137	0.383849560800308	0.7447788329144731	0.17024379796422534	0.3366368472357446	0.8110046406994788	0.27284153508429887	0.3527323317518617	0.8131308771193639	0.2804833908472749	0.34158749564216934	0.8350664831740149	0.24578453680232898	0.3062741494695987	0.8791397015496378
2	0.03389830508474576	0.33371075520908416	0.56319346894074	1.0203810273082663	0.3315806767055251	0.7077238519578345	1.4276711623928233	0.2885461179708186	0.898074381252485	1.825320952087904	0.29973006356666665	0.6590471189294504	1.8767254698889	0.34643502055834235	0.724940896042889	1.8928195408797055	0.28108008667926804	0.9264034972899655	1.8664230184124708	0.12896227618263983	0.5566286193986608	1.0319352503931887	0.1251433354058602	0.6973905716896921	1.4204922404493527	0.12906880425412973	0.900203996425049	1.8303194330756984	0.12590376354227623	0.7189320841042679	1.9180033965527858	0.08616641126465678	0.7023553313842226	1.8810253318278303	0.1347611724727549	0.9478571553856446	1.8685898642131265	0.22656760803684875	0.37977212913879266	0.43540489559056916	0.23977152866104529	0.22603291561054914	0.20278549229168139	0.2482082770344611	0.24302921147093415	0.3590763802032064	0.4005554567291576	0.42512113477488966	0.4899111938902346	0.527268537588679	0.4879534887849738	0.7167552329363999	0.35132323057126846	0.37061837637373574	0.8000536091880127	0.236549201009796	0.3218675523372499	0.8195957758335098	0.214741402211767	0.31310423741069515	0.8608282829543933	0.2422266825840994	0.3626353251805786	0.8802926241356427	0.06704844383339545	0.4039656509330071	0.5054068842537818	-0.04956882280052851	0.3721093608313688	0.7449619135806497	0.1702361364723359	0.336598007170348	0.8110548089034494	0.27271029604675334	0.3530907668080546	0.8099321952453873	0.28055409213385424	0.34148730374051156	0.8351716197996606	0.24112715851614838	0.3032885906070405	0.8756822818788443
3	0.05084745762711865	0.33375826527238406	0.5631949232246709	1.0204209870876266	0.3368505805323019	0.6924987439848461	1.4246711925827655	0.2885546341819414	0.8980664175366763	1.8253005462709624	0.29955880015641984	0.6586644798766784	1.8763927863882197	0.3461594557164905	0.7240383000402242	1.8923667591898343	0.2810920558932523	0.926365350638069	1.86650405837266	0.12963178164173686	0.5557547790449747	1.0281347440670319	0.12512585631241893	0.6972836245444214	1.4204639292329517	0.1290907442931508	0.9002178433154311	1.8302383516570213	0.12422367653060895	0.7036807956919208	1.9133102308472787	0.08729374407957384	0.7007476282549715	1.8765331526541242	0.13432857503297618	0.9486750347899452	1.8642798671417633	0.22645699886460124	0.37988038031367877	0.4353796689895372	0.23984950356248863	0.22610894522518596	0.2028325679629437	0.24813806100000907	0.2429179038295966	0.35905930140801734	0.40054350818925194	0.4271883562802441	0.48963753598996285	0.5272421765194572	0.48798955706832586	0.7166520919429046	0.35130559673010026	0.3705794796519376	0.8000365023746033	0.23369696711312962	0.30882379240939994	0.8170602014347337	0.21461961672088153	0.3125202854514024	0.8602889597652793	0.24215381425451984	0.36286191213306745	0.8802774755100594	0.06664259193594196	0.4042381647435406	0.5012713512097077	-0.0494992177505529	0.37218938194316065	0.744888860297634	0.170246743064451	0.336628336578717	0.8110417525337086	0.2727807432582254	0.35279930974037277	0.8098406991485593	0.2858461002303949	0.3284110964443225	0.8323800582701847	0.24111621772413644	0.30343270907004277	0.875518937039697
4	0.06779661016949153	0.33317896681020953	0.5646161091160008	1.0239526905820977	0.33163025247534594	0.7077789611096332	1.4276712981146447	0.28855343464343297	0.8980914755056109	1.8252997143602492	0.29957110148297933	0.6588364354048013	1.8764505188276979	0.34572105777285606	0.7251016529932909	1.888510549583111	0.2810709784635455	0.9264272012509778	1.8664659490618372	0.12898187786169157	0.5575034306373219	1.031878873239803	0.12920888728470992	0.7007842012404232	1.4207943581858558	0.12852115578463033	0.9013685273151645	1.825711101639388	0.12426297748916765	0.7036335932044528	1.9132399148666177	0.08734590876571881	0.7007753082727372	1.8764667672445285	0.13435498248557376	0.9490177195153194	1.8643833459498542	0.2264796569426579	0.3798665295159592	0.43538189952043305	0.23987455439735356	0.2261422317414091	0.2028309697339105	0.2481478914011937	0.2428942410916486	0.35905583053491025	0.40022183664417643	0.42508984836076585	0.4862429829648208	0.527236891051187	0.4881593679027528	0.7166615299581403	0.3513228224692334	0.3707853567091105	0.8000970341125744	0.2333019241420165	0.3070286564693568	0.8160750758054072	0.2150419402021021	0.31180457043938253	0.8572472742436292	0.24235878647305328	0.3624072412909572	0.8801113853686191	0.06672587606322505	0.40406745984034237	0.5013226162672093	-0.04954115651834683	0.3720902686078772	0.744967855555811	0.17016611731063036	0.3368050555164927	0.8111030445877669	0.2728364289844833	0.3534493449719535	0.8131776863808564	0.28287979060679513	0.3527830946412801	0.8320167291944943	0.2420331075176495	0.30414085694613335	0.8756195512120057
